<?xml version="1.0"?>
<svg xmlns="http://www.w3.org/2000/svg" xmlns:xlink="http://www.w3.org/1999/xlink" xmlns:svgjs="http://svgjs.com/svgjs" version="1.1" width="512" height="512" x="0" y="0" viewBox="0 0 512 512" style="enable-background:new 0 0 512 512" xml:space="preserve" class=""><g><path xmlns="http://www.w3.org/2000/svg" d="m32 240h122.821a111.978 111.978 0 0 1 202.358 0h122.821v-80h-448zm424-16h-64a8 8 0 0 1 0-16h64a8 8 0 0 1 0 16zm-80-48h80a8 8 0 0 1 0 16h-80a8 8 0 0 1 0-16zm-256 16a8 8 0 1 1 -8 8 8 8 0 0 1 8-8zm-72-8a8 8 0 0 1 8-8h32a8 8 0 0 1 8 8v32a8 8 0 0 1 -8 8h-32a8 8 0 0 1 -8-8z" fill="#ffba60" data-original="#000000" style="" class=""/><path xmlns="http://www.w3.org/2000/svg" d="m128 128h32v16h-32z" fill="#ffba60" data-original="#000000" style="" class=""/><path xmlns="http://www.w3.org/2000/svg" d="m48 128h32v16h-32z" fill="#ffba60" data-original="#000000" style="" class=""/><path xmlns="http://www.w3.org/2000/svg" d="m64 192h16v16h-16z" fill="#ffba60" data-original="#000000" style="" class=""/><path xmlns="http://www.w3.org/2000/svg" d="m176 128h160v16h-160z" fill="#ffba60" data-original="#000000" style="" class=""/><path xmlns="http://www.w3.org/2000/svg" d="m301.194 96h-90.388l-20 16h130.388z" fill="#ffba60" data-original="#000000" style="" class=""/><path xmlns="http://www.w3.org/2000/svg" d="m144 288a111.64 111.64 0 0 1 4.666-32h-116.666v128h166.369a112.047 112.047 0 0 1 -54.369-96z" fill="#ffba60" data-original="#000000" style="" class=""/><path xmlns="http://www.w3.org/2000/svg" d="m400 128h32v16h-32z" fill="#ffba60" data-original="#000000" style="" class=""/><path xmlns="http://www.w3.org/2000/svg" d="m368 288a112.047 112.047 0 0 1 -54.369 96h166.369v-128h-116.666a111.64 111.64 0 0 1 4.666 32z" fill="#ffba60" data-original="#000000" style="" class=""/><circle xmlns="http://www.w3.org/2000/svg" cx="256" cy="288" r="16" fill="#ffba60" data-original="#000000" style="" class=""/><path xmlns="http://www.w3.org/2000/svg" d="m256 224a64 64 0 1 0 64 64 64.072 64.072 0 0 0 -64-64zm0 96a32 32 0 1 1 32-32 32.036 32.036 0 0 1 -32 32z" fill="#ffba60" data-original="#000000" style="" class=""/><path xmlns="http://www.w3.org/2000/svg" d="m32 400h448v16h-448z" fill="#ffba60" data-original="#000000" style="" class=""/><path xmlns="http://www.w3.org/2000/svg" d="m256 384a96.108 96.108 0 0 0 96-96 8 8 0 0 1 -16 0 80 80 0 1 1 -80-80 80.091 80.091 0 0 1 80 80 8 8 0 0 1 16 0 96 96 0 1 0 -96 96z" fill="#ffba60" data-original="#000000" style="" class=""/></g></svg>
